<?xml version="1.0"?>
<svg version="1.1" xmlns="http://www.w3.org/2000/svg" width="800px" height="346px" style=""><path fill="#ffffff" d="M8.935546875,264.845703125q0-13.4765625,3.1494140625-26.4404296875t5.3466796875-25.8544921875q0.5859375-3.369140625,4.6142578125-4.1748046875t6.8115234375-0.8056640625q4.833984375,0,7.763671875,1.46484375q1.171875,0.5859375,2.197265625,1.318359375t1.025390625,1.904296875q0,12.59765625-3.0029296875,24.609375t-3.0029296875,25.48828125q0,4.541015625,0.6591796875,8.5693359375t1.2451171875,7.9833984375l0.87890625,4.248046875q0,1.171875,0.146484375,2.05078125t0.439453125,2.05078125q0,2.63671875-3.7353515625,3.5888671875t-6.5185546875,0.9521484375q-4.248046875,0-7.8369140625-1.6845703125t-5.6396484375-5.7861328125l-2.05078125-4.248046875q-1.7578125-3.369140625-1.7578125-7.5439453125t-0.732421875-7.6904296875z M18.310546875,176.662109375l0-2.783203125q0-6.884765625,3.4423828125-12.3046875t10.3271484375-5.419921875q0.87890625,0,1.6845703125,0.146484375t1.6845703125,0.146484375q1.7578125,0.29296875,4.6142578125,1.3916015625t2.8564453125,3.4423828125l0,0.29296875q-0.5859375,1.171875-0.732421875,2.4169921875t-0.732421875,2.1240234375l0.29296875-0.29296875q-1.7578125,4.541015625-2.8564453125,7.32421875t-2.4169921875,4.4677734375t-3.2958984375,2.4169921875t-5.6396484375,0.732421875q-0.5859375,0-2.05078125-0.146484375t-3.1494140625-0.5859375t-2.8564453125-1.171875t-1.171875-2.197265625z M66.89501953125,175.34375q0-2.05078125,4.39453125-3.515625t9.9609375-2.4169921875t10.7666015625-1.3916015625t7.1044921875-0.732421875q0-3.955078125,0.29296875-7.9833984375t1.611328125-7.177734375t4.1748046875-5.0537109375t7.9833984375-1.904296875q4.248046875,0,6.4453125,1.025390625t4.6875,4.248046875q0.5859375,1.7578125,0.5859375,3.369140625l0,4.9072265625t-0.29296875,5.0537109375q5.419921875-0.5859375,10.7666015625-1.3916015625t10.7666015625-0.8056640625q3.955078125,0,5.419921875,0.146484375t2.9296875,3.515625q1.171875,3.369140625-2.8564453125,5.126953125t-9.66796875,2.63671875t-11.2060546875,1.318359375t-6.73828125,0.439453125q-1.7578125,25.1953125-3.5888671875,49.951171875t-1.8310546875,50.244140625q0,11.42578125,0.732421875,23.583984375t4.1015625,22.998046875q0.87890625,3.369140625,2.9296875,6.298828125t2.05078125,6.298828125q0,2.05078125-1.611328125,3.22265625t-3.8818359375,1.9775390625t-4.541015625,0.9521484375t-3.7353515625,0.146484375q-9.228515625,0-14.0625-6.884765625t-6.9580078125-16.4794921875t-2.2705078125-19.7021484375t-0.146484375-16.40625q0-12.890625,0.5126953125-26.3671875t1.2451171875-26.66015625t2.05078125-25.78125t3.076171875-23.4375q-5.126953125,0.5859375-10.0341796875,1.318359375t-10.0341796875,0.732421875q-1.171875,0-3.1494140625-0.146484375t-3.7353515625-0.732421875t-3.0029296875-1.611328125t-1.2451171875-2.9296875z M178.9072265625,230.568359375q0-6.005859375,3.515625-10.3271484375t8.5693359375-7.03125t11.0595703125-4.0283203125t11.1328125-1.318359375q3.955078125,0,10.546875,1.171875t12.890625,3.515625t10.9130859375,6.15234375t4.6142578125,8.935546875q0,2.34375-1.7578125,4.1748046875t-3.662109375,1.8310546875q-3.955078125,0-7.177734375-2.5634765625t-6.6650390625-5.419921875t-7.5439453125-5.419921875t-9.228515625-2.5634765625t-9.3017578125,3.2958984375t-4.1748046875,8.7158203125q0,8.935546875,6.298828125,17.5048828125t13.8427734375,18.017578125t13.8427734375,19.8486328125t6.298828125,22.998046875q0,5.419921875-2.2705078125,9.1552734375t-6.005859375,6.0791015625t-8.4228515625,3.5888671875t-9.08203125,1.2451171875q-4.833984375,0-11.279296875-2.2705078125t-12.158203125-6.005859375t-9.5947265625-8.7158203125t-3.8818359375-10.400390625q0-2.63671875,3.7353515625-3.369140625t5.4931640625-0.732421875q0.87890625,0,2.7099609375,0.5859375t3.5888671875,1.318359375t3.1494140625,1.611328125t1.0986328125,1.904296875q1.46484375,1.7578125,4.4677734375,5.2001953125t6.005859375,5.56640625t5.2734375,1.5380859375t2.2705078125-6.591796875q0-11.42578125-6.15234375-21.0205078125t-13.4033203125-18.75t-13.4033203125-18.1640625t-6.15234375-19.2626953125z M282.13037109375,227.345703125q0-6.005859375,2.1240234375-10.107421875t9.0087890625-4.1015625q2.63671875,0,6.591796875,0.8056640625t4.541015625,4.0283203125q1.46484375,8.642578125,1.611328125,18.75t1.025390625,19.04296875q3.369140625-6.591796875,8.642578125-14.208984375t12.01171875-14.0625t14.6484375-10.693359375t16.11328125-4.248046875q0.5859375,0,2.197265625,0.439453125t3.0029296875,1.2451171875t1.6845703125,1.8310546875t-1.611328125,1.904296875q-0.5859375,1.7578125-2.490234375,2.1240234375t-3.369140625,0.3662109375q-0.87890625,0-2.783203125-0.732421875q-10.83984375,5.712890625-18.45703125,15.52734375t-12.451171875,21.7529296875t-7.03125,25.1953125t-2.197265625,25.8544921875q0,6.298828125-2.8564453125,7.6171875t-9.1552734375,1.318359375q-3.369140625,0-7.1044921875-0.732421875t-5.2001953125-4.6875q-2.63671875-8.349609375-4.3212890625-19.189453125t-2.5634765625-22.3388671875t-1.2451171875-22.6318359375t-0.3662109375-20.068359375z M386.232421875,264.845703125q0-13.4765625,3.1494140625-26.4404296875t5.3466796875-25.8544921875q0.5859375-3.369140625,4.6142578125-4.1748046875t6.8115234375-0.8056640625q4.833984375,0,7.763671875,1.46484375q1.171875,0.5859375,2.197265625,1.318359375t1.025390625,1.904296875q0,12.59765625-3.0029296875,24.609375t-3.0029296875,25.48828125q0,4.541015625,0.6591796875,8.5693359375t1.2451171875,7.9833984375l0.87890625,4.248046875q0,1.171875,0.146484375,2.05078125t0.439453125,2.05078125q0,2.63671875-3.7353515625,3.5888671875t-6.5185546875,0.9521484375q-4.248046875,0-7.8369140625-1.6845703125t-5.6396484375-5.7861328125l-2.05078125-4.248046875q-1.7578125-3.369140625-1.7578125-7.5439453125t-0.732421875-7.6904296875z M395.607421875,176.662109375l0-2.783203125q0-6.884765625,3.4423828125-12.3046875t10.3271484375-5.419921875q0.87890625,0,1.6845703125,0.146484375t1.6845703125,0.146484375q1.7578125,0.29296875,4.6142578125,1.3916015625t2.8564453125,3.4423828125l0,0.29296875q-0.5859375,1.171875-0.732421875,2.4169921875t-0.732421875,2.1240234375l0.29296875-0.29296875q-1.7578125,4.541015625-2.8564453125,7.32421875t-2.4169921875,4.4677734375t-3.2958984375,2.4169921875t-5.6396484375,0.732421875q-0.5859375,0-2.05078125-0.146484375t-3.1494140625-0.5859375t-2.8564453125-1.171875t-1.171875-2.197265625z M450.19775390625,235.6953125q0-4.248046875,2.4169921875-5.56640625t6.0791015625-1.318359375q6.005859375,0,9.1552734375,2.2705078125t3.1494140625,7.9833984375q0,6.884765625,1.025390625,17.2119140625t3.0029296875,20.068359375t4.6875,16.7724609375t5.6396484375,7.03125q5.419921875,0,9.5947265625-8.349609375t7.32421875-20.5078125t5.419921875-26.1474609375t3.1494140625-24.9755859375q0.5859375-6.005859375,2.8564453125-8.7158203125t8.2763671875-2.7099609375q6.884765625,0,10.0341796875,5.712890625t4.0283203125,14.0625q0.732421875,7.177734375,0.732421875,14.94140625l0,2.490234375l0,5.859375q0,5.56640625,0.146484375,9.9609375l4.248046875,89.794921875l0.5859375,14.94140625q0.29296875,2.05078125,0.439453125,3.8818359375t0.146484375,3.8818359375q0,8.349609375-3.5888671875,10.7666015625t-11.6455078125,2.4169921875q-1.7578125,0-4.4677734375-0.29296875t-5.2734375-1.171875t-4.39453125-2.4169921875t-1.8310546875-3.8818359375l0.5859375-1.46484375q0.732421875-8.7890625,0.732421875-18.45703125l0-3.076171875q-0.146484375-11.42578125-0.732421875-23.14453125t-1.318359375-23.4375t-0.732421875-22.55859375q-2.05078125,4.541015625-4.7607421875,9.375t-6.298828125,8.7158203125t-8.1298828125,6.4453125t-10.25390625,2.5634765625q-8.349609375,0-13.76953125-4.39453125t-8.4228515625-11.42578125t-4.3212890625-15.7470703125t-1.7578125-17.431640625t-0.5859375-16.6259765625t-1.171875-13.330078125z M572.3173828125,268.361328125q0-9.9609375,2.7099609375-19.189453125t8.1298828125-16.4794921875t13.5498046875-11.572265625t18.8232421875-4.3212890625q6.591796875,0,14.5751953125,1.9775390625t15.0146484375,5.859375t11.71875,9.8876953125t4.6875,13.76953125q0,3.662109375-1.2451171875,5.56640625t-5.0537109375,1.904296875l-1.611328125-0.29296875q4.248046875,11.42578125,7.32421875,23.4375t6.005859375,24.0234375q1.171875,2.34375,1.7578125,4.1748046875t0.5859375,3.5888671875q0,2.34375-1.318359375,3.8818359375t-3.4423828125,2.2705078125t-4.39453125,1.025390625t-4.0283203125,0.29296875q-6.298828125,0-9.4482421875-2.197265625t-4.541015625-6.005859375t-1.6845703125-8.5693359375t-1.171875-9.5947265625q-1.7578125,5.712890625-4.6142578125,11.1328125t-6.73828125,9.7412109375t-9.1552734375,6.884765625t-11.865234375,2.5634765625q-9.66796875,0-16.259765625-5.56640625t-10.6201171875-13.6962890625t-5.859375-17.3583984375t-1.8310546875-17.138671875z M593.1181640625,266.310546875q0,5.419921875,0.732421875,11.42578125t2.4169921875,11.865234375t4.3212890625,11.0595703125t6.591796875,9.1552734375q7.177734375-7.763671875,10.6201171875-18.896484375t6.15234375-21.4599609375t6.15234375-17.724609375t10.6201171875-7.3974609375q4.541015625,0,7.6171875,1.611328125q-1.46484375-3.662109375-4.833984375-7.1044921875t-7.5439453125-6.298828125t-8.642578125-4.6875t-8.4228515625-1.8310546875q-1.171875,0-2.7099609375,0.3662109375t-2.4169921875,0.0732421875q-6.005859375,1.7578125-9.8876953125,6.0791015625t-6.298828125,10.1806640625t-3.4423828125,12.01171875t-1.025390625,11.572265625z M699.27099609375,230.568359375q0-6.005859375,3.515625-10.3271484375t8.5693359375-7.03125t11.0595703125-4.0283203125t11.1328125-1.318359375q3.955078125,0,10.546875,1.171875t12.890625,3.515625t10.9130859375,6.15234375t4.6142578125,8.935546875q0,2.34375-1.7578125,4.1748046875t-3.662109375,1.8310546875q-3.955078125,0-7.177734375-2.5634765625t-6.6650390625-5.419921875t-7.5439453125-5.419921875t-9.228515625-2.5634765625t-9.3017578125,3.2958984375t-4.1748046875,8.7158203125q0,8.935546875,6.298828125,17.5048828125t13.8427734375,18.017578125t13.8427734375,19.8486328125t6.298828125,22.998046875q0,5.419921875-2.2705078125,9.1552734375t-6.005859375,6.0791015625t-8.4228515625,3.5888671875t-9.08203125,1.2451171875q-4.833984375,0-11.279296875-2.2705078125t-12.158203125-6.005859375t-9.5947265625-8.7158203125t-3.8818359375-10.400390625q0-2.63671875,3.7353515625-3.369140625t5.4931640625-0.732421875q0.87890625,0,2.7099609375,0.5859375t3.5888671875,1.318359375t3.1494140625,1.611328125t1.0986328125,1.904296875q1.46484375,1.7578125,4.4677734375,5.2001953125t6.005859375,5.56640625t5.2734375,1.5380859375t2.2705078125-6.591796875q0-11.42578125-6.15234375-21.0205078125t-13.4033203125-18.75t-13.4033203125-18.1640625t-6.15234375-19.2626953125z M805.5703125,314.650390625q0-3.662109375,0.439453125-7.3974609375t0.439453125-7.3974609375l0-2.34375q0-4.541015625,3.7353515625-5.712890625t7.6904296875-1.171875q4.541015625,0,8.7158203125,1.904296875t4.1748046875,7.32421875q0.87890625,2.63671875,0.87890625,6.298828125l0,6.884765625q0,5.126953125-3.5888671875,7.1044921875t-9.5947265625,1.9775390625q-4.248046875,0-8.5693359375-1.5380859375t-4.3212890625-5.9326171875z M864.99462890625,266.603515625q0-11.42578125,2.4169921875-20.7275390625t7.6904296875-15.7470703125t13.8427734375-10.0341796875t20.8740234375-3.5888671875q6.884765625,0,14.0625,1.8310546875t12.3046875,6.8115234375q0-2.9296875,0.5859375-12.0849609375t1.46484375-21.3134765625t1.8310546875-25.48828125t1.6845703125-24.755859375t1.318359375-19.189453125t0.87890625-8.7890625q1.46484375-4.248046875,5.419921875-5.0537109375t7.470703125-0.8056640625q9.228515625,0,11.3525390625,2.9296875t2.1240234375,11.71875q0,32.080078125-2.8564453125,63.8671875t-2.8564453125,63.8671875q0,20.654296875,0.8056640625,41.5283203125t5.7861328125,41.0888671875l1.611328125,1.46484375l0.87890625,2.63671875l-2.197265625,3.369140625q-5.56640625,3.515625-12.890625,3.515625l-0.5859375,0q-7.470703125,0-13.76953125-3.515625q-2.34375-1.46484375-3.8818359375-8.7158203125t-2.4169921875-15.966796875t-1.318359375-16.7724609375t-0.732421875-11.42578125q-5.126953125,11.71875-13.9892578125,20.1416015625t-22.3388671875,8.4228515625q-10.546875,0-17.28515625-4.541015625t-10.4736328125-11.572265625t-5.2734375-15.7470703125t-1.5380859375-17.3583984375z M882.71923828125,267.482421875q0,3.369140625,0.8056640625,9.9609375t2.5634765625,13.18359375t4.9072265625,11.71875t8.2763671875,5.126953125q6.884765625-3.369140625,12.451171875-11.2060546875t9.5947265625-17.28515625t6.298828125-18.896484375t2.2705078125-16.3330078125q0-8.642578125-6.298828125-14.35546875t-15.087890625-5.712890625q-2.63671875,0-5.3466796875,1.025390625t-5.0537109375,2.34375q-5.419921875,5.126953125-8.4228515625,9.3017578125t-4.541015625,8.642578125t-1.9775390625,9.8876953125t-0.439453125,12.59765625z M1003.6669921875,274.3671875q0-10.25390625,2.2705078125-24.169921875t7.6904296875-26.3671875t14.2822265625-21.1669921875t22.3388671875-8.7158203125q12.59765625,0,18.896484375,7.2509765625t6.298828125,19.5556640625q0,8.056640625-3.0029296875,17.6513671875t-8.5693359375,18.1640625t-13.18359375,14.2822265625t-16.9921875,5.712890625l-3.80859375-0.29296875q0,3.955078125,1.171875,10.6201171875t3.4423828125,13.2568359375t5.859375,11.572265625t8.7158203125,4.98046875q7.470703125,0,14.35546875-6.005859375t13.037109375-13.330078125t11.42578125-13.330078125t9.66796875-6.005859375q2.34375,0,4.833984375,0.732421875t2.783203125,4.1015625q0,2.05078125-1.0986328125,3.369140625t-1.9775390625,2.9296875q-4.541015625,7.763671875-9.8876953125,14.794921875t-12.0849609375,12.744140625t-14.7216796875,9.0087890625t-17.6513671875,3.2958984375q-12.59765625,0-20.947265625-4.4677734375t-13.4765625-12.01171875t-7.3974609375-17.431640625t-2.2705078125-20.7275390625z M1029.8876953125,263.234375l4.1015625,3.662109375q2.9296875,2.63671875,5.859375,1.171875t5.2734375-5.3466796875t4.3212890625-9.5947265625t3.515625-11.71875t2.2705078125-11.71875t0.732421875-9.521484375l0-4.98046875t-0.439453125-5.2734375t-1.5380859375-4.1748046875t-3.4423828125-2.1240234375q-0.732421875-0.146484375-1.318359375-0.146484375q-4.98046875,0-8.49609375,6.298828125q-3.80859375,7.03125-6.15234375,17.0654296875t-3.369140625,20.5810546875t-1.318359375,15.8203125z M1120.0737304688,213.869140625q0-1.171875,1.3916015625-2.1240234375t3.1494140625-1.3916015625t3.5888671875-0.5859375t2.7099609375-0.146484375q6.591796875,0,11.279296875,5.859375t8.1298828125,15.0146484375t5.859375,20.21484375t4.6142578125,22.0458984375t4.3212890625,20.1416015625t4.7607421875,14.1357421875q4.541015625-8.935546875,8.2763671875-21.533203125t6.884765625-26.07421875t5.56640625-26.5869140625t3.8818359375-22.9248046875q0.5859375-2.63671875,3.662109375-3.2958984375t5.126953125-0.6591796875q3.369140625,0,5.859375,0.9521484375t2.490234375,4.1748046875q0,5.419921875-1.318359375,14.7216796875t-3.5888671875,20.8740234375t-5.2734375,23.73046875t-6.4453125,23.0712890625t-7.177734375,19.3359375t-7.3974609375,11.9384765625q-1.7578125,2.05078125-5.4931640625,2.8564453125t-6.2255859375,0.8056640625q-8.642578125,0-14.35546875-4.541015625l0,0.29296875q-8.935546875-8.349609375-13.18359375-20.361328125t-6.15234375-25.048828125t-3.4423828125-25.927734375t-5.2001953125-23.4375q-0.5859375-1.171875-1.46484375-3.4423828125t-2.05078125-4.541015625t-1.9775390625-4.3212890625t-0.8056640625-3.22265625z"/><path fill="#ff0000" d=""/></svg>
